<svg width="97" height="97" viewBox="0 0 97 97" fill="none" xmlns="http://www.w3.org/2000/svg">
<path d="M85.5391 47.3845L66.7355 28.438C66.4365 28.1566 66.0425 28 65.6332 28C65.224 28 64.83 28.1566 64.531 28.438L60.4501 32.547C60.1616 32.8434 60 33.2419 60 33.6569C60 34.0719 60.1616 34.4704 60.4501 34.7667L74.0837 48.4944L60.4501 62.2088C60.1616 62.5052 60 62.9037 60 63.3187C60 63.7337 60.1616 64.1321 60.4501 64.4285L64.531 68.5376C64.8231 68.8327 65.2195 68.999 65.6332 69C66.0464 68.9961 66.4418 68.8302 66.7355 68.5376L85.5391 49.6042C85.6851 49.4592 85.801 49.2864 85.8801 49.0959C85.9593 48.9053 86 48.7009 86 48.4944C86 48.2879 85.9593 48.0834 85.8801 47.8929C85.801 47.7024 85.6851 47.5296 85.5391 47.3845V47.3845Z" fill="#00A8CC"/>
<path d="M36.9003 62.4842L22.9027 48.5L36.9003 34.5024C37.2012 34.2025 37.3708 33.7955 37.3719 33.3707C37.3679 32.9465 37.1988 32.5406 36.9003 32.2391L32.7105 28.0492C32.5613 27.902 32.3846 27.7858 32.1904 27.7072C31.9962 27.6286 31.7883 27.5891 31.5788 27.5911C31.1562 27.59 30.75 27.7545 30.4471 28.0492L11.1414 47.3684C10.9915 47.5162 10.8725 47.6924 10.7913 47.8867C10.71 48.081 10.6682 48.2895 10.6682 48.5C10.6682 48.7106 10.71 48.9191 10.7913 49.1133C10.8725 49.3076 10.9915 49.4838 11.1414 49.6317L30.4471 68.9374C30.7486 69.2358 31.1546 69.405 31.5788 69.4089C32.0036 69.4079 32.4106 69.2383 32.7105 68.9374L36.9003 64.7475C37.1966 64.4453 37.3625 64.039 37.3625 63.6159C37.3625 63.1927 37.1966 62.7864 36.9003 62.4842Z" fill="#00A8CC"/>
<path d="M59.4799 21.5556C59.2755 21.1829 58.9314 20.9067 58.5234 20.7876L55.1284 19.7907C54.9276 19.7308 54.7169 19.7112 54.5085 19.733C54.3001 19.7548 54.0981 19.8176 53.9141 19.9178C53.73 20.0179 53.5676 20.1535 53.4361 20.3166C53.3046 20.4798 53.2067 20.6673 53.148 20.8685L37.3855 74.2185C37.3256 74.421 37.3064 74.6334 37.329 74.8435C37.3515 75.0535 37.4153 75.257 37.5167 75.4422C37.6181 75.6275 37.7551 75.7909 37.9198 75.9231C38.0846 76.0553 38.2739 76.1536 38.4767 76.2124L41.8717 77.2093C42.0189 77.2339 42.1691 77.2339 42.3163 77.2093C42.662 77.2114 42.9989 77.1007 43.2761 76.8941C43.5532 76.6874 43.7555 76.3961 43.8521 76.0642L59.6146 22.7142C59.7092 22.3242 59.6614 21.9134 59.4799 21.5556Z" fill="#00A8CC"/>
</svg>
