<svg width="57" height="56" viewBox="0 0 57 56" fill="none" xmlns="http://www.w3.org/2000/svg">
<path d="M8.44855 0L0 8.20019L3.17185 11.2731L7.39321 7.17587L9.50389 9.2245L5.28253 13.3218L9.50389 17.419L13.7252 13.3218L15.8359 15.3704L11.6146 19.4677L15.8359 23.5649L24.2786 15.3704L8.44855 0ZM47.2571 1.262L39.2983 8.98682L47.741 17.1813L55.6998 9.45653C54.5561 7.89576 53.2996 6.39127 51.8574 4.99142C50.4152 3.5916 48.865 2.37213 47.2571 1.262ZM35.0769 13.0841L3.4109 43.8192L1.30023 54.0624L11.8536 52.0138L43.5196 21.2786L35.0769 13.0841ZM41.1641 31.7595L32.7214 39.954L36.9427 44.0513L41.1641 39.954L43.2748 42.0026L39.0534 46.0999L43.2748 50.1972L47.4961 46.0999L49.6068 48.1485L45.3854 52.2458L48.5515 55.3244L57 47.1242L41.1641 31.7595Z" fill="#00A8CC"/>
</svg>
