<svg width="49" height="49" viewBox="0 0 49 49" fill="none" xmlns="http://www.w3.org/2000/svg">
<path d="M24.5 0C10.9719 0 0 10.9699 0 24.5C0 35.3249 7.01925 44.5083 16.756 47.7485C17.9789 47.9751 18.375 47.2156 18.375 46.5704V42.0093C11.5599 43.4916 10.141 39.1183 10.141 39.1183C9.02621 36.2865 7.41942 35.5332 7.41942 35.5332C5.19604 34.0121 7.58888 34.0448 7.58888 34.0448C10.0491 34.2163 11.3435 36.5703 11.3435 36.5703C13.5281 40.3147 17.0745 39.2327 18.473 38.6059C18.6915 37.0236 19.3264 35.9415 20.0288 35.331C14.5877 34.7083 8.86696 32.6075 8.86696 23.2219C8.86696 20.5453 9.8245 18.3607 11.3905 16.6457C11.1373 16.0271 10.2982 13.5342 11.6293 10.1614C11.6293 10.1614 13.6873 9.50396 18.3689 12.6726C20.3228 12.1295 22.4175 11.858 24.5 11.8478C26.5825 11.858 28.6793 12.1295 30.6373 12.6726C35.3147 9.50396 37.3686 10.1614 37.3686 10.1614C38.7018 13.5362 37.8627 16.0291 37.6095 16.6457C39.1816 18.3607 40.131 20.5473 40.131 23.2219C40.131 32.632 34.4 34.7042 28.9447 35.3106C29.8226 36.0701 30.625 37.5605 30.625 39.8472V46.5704C30.625 47.2217 31.017 47.9873 32.2604 47.7464C41.9889 44.5022 49 35.3208 49 24.5C49 10.9699 38.0301 0 24.5 0Z" fill="white"/>
</svg>
