<svg width="40" height="40" viewBox="0 0 40 40" fill="none" xmlns="http://www.w3.org/2000/svg">
<path d="M39.3286 18.0763L33.2664 11.5661V4.04569C33.2664 2.6859 32.2403 1.58389 30.9722 1.58389C29.7071 1.58389 28.681 2.6859 28.681 4.04569V6.6419L24.1672 1.79434C21.9355 -0.600958 18.0554 -0.596709 15.8289 1.79867L0.671097 18.0763C-0.223699 19.0392 -0.223699 20.5971 0.671097 21.5585C1.5663 22.521 3.01984 22.521 3.91471 21.5585L19.071 5.28036C19.5648 4.7529 20.435 4.7529 20.9262 5.2788L36.0851 21.5585C36.5346 22.0398 37.1206 22.2792 37.7065 22.2792C38.2935 22.2792 38.8805 22.0395 39.3287 21.5585C40.2238 20.5972 40.2238 19.0393 39.3286 18.0763Z" fill="#393E46"/>
<path d="M20.7961 9.95346C20.3558 9.4808 19.6427 9.4808 19.2036 9.95346L5.87085 24.2674C5.66035 24.4934 5.54102 24.8019 5.54102 25.1238V35.5639C5.54102 38.0137 7.39068 40 9.67184 40H16.2729V29.0216H23.7254V40H30.3266C32.6077 40 34.4573 38.0137 34.4573 35.564V25.1238C34.4573 24.8019 34.339 24.4934 34.1275 24.2674L20.7961 9.95346Z" fill="#393E46"/>
</svg>
