<svg width="49" height="50" viewBox="0 0 49 50" fill="none" xmlns="http://www.w3.org/2000/svg">
<path d="M24.4988 5.17711C31.0406 5.17711 31.8173 5.20161 34.4022 5.32166C41.042 5.62301 44.1439 8.77371 44.4477 15.3642C44.5653 17.9465 44.5873 18.7207 44.5873 25.2622C44.5873 31.8086 44.5628 32.5828 44.4452 35.1651C44.1414 41.7483 41.0494 44.9039 34.4022 45.2077C31.8173 45.3253 31.0455 45.3498 24.4988 45.3498C17.9569 45.3498 17.1827 45.3253 14.6003 45.2077C7.9433 44.9039 4.85859 41.7385 4.55478 35.1627C4.43717 32.5804 4.41267 31.8062 4.41267 25.2622C4.41267 18.7207 4.43717 17.9465 4.55478 15.3642C4.85859 8.77371 7.9531 5.62056 14.6003 5.31921C17.1827 5.20161 17.9569 5.17711 24.4988 5.17711ZM24.4988 0.762207C17.8467 0.762207 17.0136 0.791607 14.3994 0.909207C5.50052 1.31836 0.553728 6.25511 0.147007 15.1609C0.0269514 17.775 0 18.608 0 25.2622C0 31.9164 0.0269514 32.7519 0.147007 35.3636C0.553728 44.262 5.49072 49.2061 14.3969 49.6152C17.0136 49.7328 17.8467 49.7622 24.4988 49.7622C31.1533 49.7622 31.9888 49.7328 34.6031 49.6152C43.4921 49.2061 48.4487 44.2693 48.853 35.3636C48.973 32.7519 49 31.9164 49 25.2622C49 18.608 48.973 17.775 48.853 15.1633C48.4536 6.27226 43.5117 1.32081 34.6055 0.909207C31.9888 0.786707 31.1533 0.762207 24.4988 0.762207ZM24.4988 12.6815C21.162 12.6815 17.9619 14.0069 15.6024 16.3663C13.2429 18.7256 11.9174 21.9256 11.9174 25.2622C11.9174 28.5988 13.2429 31.7988 15.6024 34.1581C17.9619 36.5175 21.162 37.843 24.4988 37.843C27.8356 37.843 31.0357 36.5175 33.3952 34.1581C35.7546 31.7988 37.0802 28.5988 37.0802 25.2622C37.0802 21.9256 35.7546 18.7256 33.3952 16.3663C31.0357 14.0069 27.8356 12.6815 24.4988 12.6815ZM24.4988 33.4281C22.3329 33.4281 20.2558 32.5677 18.7244 31.0363C17.1929 29.5049 16.3325 27.4279 16.3325 25.2622C16.3325 23.0965 17.1929 21.0195 18.7244 19.4881C20.2558 17.9567 22.3329 17.0964 24.4988 17.0964C26.6646 17.0964 28.7417 17.9567 30.2732 19.4881C31.8047 21.0195 32.665 23.0965 32.665 25.2622C32.665 27.4279 31.8047 29.5049 30.2732 31.0363C28.7417 32.5677 26.6646 33.4281 24.4988 33.4281ZM37.58 9.24656C37.1939 9.2464 36.8115 9.32228 36.4547 9.46988C36.098 9.61748 35.7738 9.83391 35.5006 10.1068C35.2275 10.3797 35.0108 10.7037 34.8629 11.0603C34.715 11.417 34.6388 11.7992 34.6386 12.1853C34.6384 12.5714 34.7143 12.9538 34.8619 13.3105C35.0096 13.6673 35.226 13.9915 35.4989 14.2646C35.7718 14.5377 36.0958 14.7544 36.4525 14.9023C36.8091 15.0502 37.1914 15.1264 37.5775 15.1266C38.3573 15.1266 39.1051 14.8168 39.6565 14.2655C40.2079 13.7141 40.5177 12.9663 40.5177 12.1866C40.5177 11.4068 40.2079 10.659 39.6565 10.1077C39.1051 9.55631 38.3573 9.24656 37.5775 9.24656H37.58Z" fill="#00A8CC"/>
</svg>
