<svg width="57" height="57" viewBox="0 0 57 57" fill="none" xmlns="http://www.w3.org/2000/svg">
<g clip-path="url(#clip0_74_36)">
<path d="M38.5 20C35.4624 20 33 22.4624 33 25.5C33 28.5376 35.4624 31 38.5 31C41.5376 31 44 28.5376 44 25.5C44 22.4624 41.5376 20 38.5 20Z" fill="#00A8CC"/>
<path d="M38.5 19C42.084 19 45 21.916 45 25.5C45 29.084 42.084 32 38.5 32C34.916 32 32 29.084 32 25.5C32 21.916 34.916 19 38.5 19ZM38.5 30C40.981 30 43 27.981 43 25.5C43 23.019 40.981 21 38.5 21C36.019 21 34 23.019 34 25.5C34 27.981 36.019 30 38.5 30Z" fill="#00A8CC"/>
<path d="M21.5 20C18.4624 20 16 22.4624 16 25.5C16 28.5376 18.4624 31 21.5 31C24.5376 31 27 28.5376 27 25.5C27 22.4624 24.5376 20 21.5 20Z" fill="#00A8CC"/>
<path d="M21.5 19C25.084 19 28 21.916 28 25.5C28 29.084 25.084 32 21.5 32C17.916 32 15 29.084 15 25.5C15 21.916 17.916 19 21.5 19ZM21.5 30C23.981 30 26 27.981 26 25.5C26 23.019 23.981 21 21.5 21C19.019 21 17 23.019 17 25.5C17 27.981 19.019 30 21.5 30Z" fill="#00A8CC"/>
<path d="M44 25C44.553 25 45 25.447 45 26C45 33.72 38.72 40 31 40C30.447 40 30 39.553 30 39C30 38.447 30.447 38 31 38C37.617 38 43 32.617 43 26C43 25.447 43.447 25 44 25Z" fill="#00A8CC"/>
<path d="M27 25C27.553 25 28 25.447 28 26C28 33.72 21.72 40 14 40C13.447 40 13 39.553 13 39C13 38.447 13.447 38 14 38C20.617 38 26 32.617 26 26C26 25.447 26.447 25 27 25Z" fill="#00A8CC"/>
</g>
<defs>
<clipPath id="clip0_74_36">
<rect width="57" height="57" fill="white" transform="translate(57 57) rotate(-180)"/>
</clipPath>
</defs>
</svg>
