<svg width="73" height="73" viewBox="0 0 73 73" fill="none" xmlns="http://www.w3.org/2000/svg">
<path d="M42.9751 50.7841L59.3971 67.3992C60.9956 69.0166 63.5992 69.0284 65.2123 67.4258C66.8254 65.8232 66.8373 63.2129 65.2388 61.5956L49.4021 45.5727C53.2474 41.1998 55.582 35.442 55.582 29.1365C55.582 15.4723 44.6188 4.38013 31.076 4.38013C17.5333 4.38013 6.57007 15.4724 6.57007 29.1365C6.57007 42.8008 17.5333 53.893 31.076 53.893C35.3955 53.893 39.4526 52.7645 42.9752 50.7842L42.9751 50.7841ZM31.076 45.6476C22.0921 45.6476 14.794 38.2637 14.794 29.1365C14.794 20.0093 22.0921 12.6253 31.076 12.6253C40.0598 12.6253 47.358 20.0093 47.358 29.1365C47.358 38.2637 40.0598 45.6476 31.076 45.6476Z" fill="#00A8CC"/>
</svg>
