<svg width="49" height="50" viewBox="0 0 49 50" fill="none" xmlns="http://www.w3.org/2000/svg">
<g clip-path="url(#clip0_48_23)">
<path d="M51 11.3841C49.1652 12.2623 47.2187 12.8383 45.2256 13.093C47.3255 11.7375 48.8966 9.60297 49.6452 7.08804C47.6717 8.35268 45.5124 9.24377 43.2608 9.7228C42.3207 8.63892 41.1842 7.77529 39.922 7.18552C38.6598 6.59576 37.2988 6.29246 35.9235 6.29444C29.4337 6.29444 24.6663 12.8337 26.1313 19.6217C22.1345 19.4057 18.2244 18.2844 14.655 16.3307C11.0856 14.3769 7.93665 11.6344 5.41268 8.28109C4.12832 10.6711 3.73514 13.4995 4.31309 16.1914C4.89104 18.8832 6.39674 21.2363 8.52402 22.7723C6.92759 22.7196 5.366 22.2552 3.9697 21.4178C3.85946 26.4466 7.19619 31.1527 12.0298 32.1976C10.5494 32.6316 8.99671 32.695 7.49018 32.3828C8.1318 34.5404 9.38233 36.4273 11.0666 37.7792C12.7509 39.1311 14.7847 39.8804 16.883 39.922C12.6696 43.4907 7.31684 45.1081 2 44.4191C6.59666 47.6077 11.9462 49.3002 17.4097 49.2944C36.0729 49.2944 46.6172 32.2743 45.9802 17.0081C47.9481 15.4714 49.6471 13.5689 50.9976 11.3894L51 11.3841Z" fill="#00A8CC"/>
</g>
<defs>
<clipPath id="clip0_48_23">
<rect width="49" height="49" fill="white" transform="translate(0 0.294434)"/>
</clipPath>
</defs>
</svg>
