<svg xmlns="http://www.w3.org/2000/svg" version="1.1" xmlns:xlink="http://www.w3.org/1999/xlink" xmlns:svgjs="http://svgjs.com/svgjs" width="1920" height="1080" preserveAspectRatio="none" viewBox="0 0 1920 1080"><g mask="url(&quot;#SvgjsMask1000&quot;)" fill="none"><path d="M -1804.6872773595155,159 C -1612.69,273 -1228.69,687 -844.6872773595154,729 C -460.69,771 -268.69,376 115.3127226404846,369 C 499.31,362 714.38,699.4 1075.3127226404845,694 C 1436.25,688.6 1751.06,412.4 1920,342" stroke="rgba(0, 168, 204, 1)" stroke-width="2"></path><path d="M -1675.9782900445093,801 C -1483.98,720.4 -1099.98,370.8 -715.9782900445093,398 C -331.98,425.2 -139.98,968.6 244.02170995549068,937 C 628.02,905.4 868.83,230 1204.0217099554907,240 C 1539.22,250 1776.8,837.6 1920,987" stroke="rgba(0, 168, 204, 1)" stroke-width="2"></path><path d="M -1027.7391753850986,933 C -835.74,761.8 -451.74,70.4 -67.7391753850987,77 C 316.26,83.6 508.26,919.6 892.2608246149013,966 C 1276.26,1012.4 1646.71,310 1852.2608246149014,309 C 2057.81,308 1906.45,830.6 1920,961" stroke="rgba(0, 168, 204, 1)" stroke-width="2"></path></g><defs><mask id="SvgjsMask1000"><rect width="1920" height="1080" fill="#ffffff"></rect></mask></defs></svg>